<?xml version="1.0" encoding="UTF-8" standalone="no"?>
<svg
   xmlns:dc="http://purl.org/dc/elements/1.1/"
   xmlns:cc="http://creativecommons.org/ns#"
   xmlns:rdf="http://www.w3.org/1999/02/22-rdf-syntax-ns#"
   xmlns:svg="http://www.w3.org/2000/svg"
   xmlns="http://www.w3.org/2000/svg"
   xmlns:sodipodi="http://sodipodi.sourceforge.net/DTD/sodipodi-0.dtd"
   xmlns:inkscape="http://www.inkscape.org/namespaces/inkscape"
   version="1.1"
   id="svg1"
   width="1821.3333"
   height="1024"
   viewBox="0 0 1821.3333 1024"
   xml:space="preserve"
   sodipodi:docname="geocamp_user.svg"
   inkscape:version="1.0.2 (e86c870879, 2021-01-15, custom)"><metadata
     id="metadata13"><rdf:RDF><cc:Work
         rdf:about=""><dc:format>image/svg+xml</dc:format><dc:type
           rdf:resource="http://purl.org/dc/dcmitype/StillImage" /><dc:title></dc:title></cc:Work></rdf:RDF></metadata><sodipodi:namedview
     pagecolor="#ffffff"
     bordercolor="#666666"
     borderopacity="1"
     objecttolerance="10"
     gridtolerance="10"
     guidetolerance="10"
     inkscape:pageopacity="0"
     inkscape:pageshadow="2"
     inkscape:window-width="1920"
     inkscape:window-height="986"
     id="namedview11"
     showgrid="false"
     inkscape:zoom="0.77360911"
     inkscape:cx="910.66663"
     inkscape:cy="512"
     inkscape:window-x="-11"
     inkscape:window-y="-11"
     inkscape:window-maximized="1"
     inkscape:current-layer="svg1" /><defs
     id="defs1" /><path
     style="fill:#f8f9fb;fill-opacity:1;stroke:none;stroke-width:1px;stroke-linecap:butt;stroke-linejoin:miter;stroke-opacity:1"
     d="m 694.6028,705.40936 c 0,0 9.3781,35.72804 34.3118,39.8803 24.9337,4.15227 -10.7805,29.87716 -10.7805,29.87716 0,0 -17.2858,-17.44821 -21.7581,-29.57633 -6.2051,-16.82691 -1.7732,-40.18113 -1.7732,-40.18113 z"
     id="path77" /><path
     style="fill:#f8f9fb;fill-opacity:1;stroke:none;stroke-width:1px;stroke-linecap:butt;stroke-linejoin:miter;stroke-opacity:1"
     d="m 843.2284,705.40936 c 0,0 -9.3781,35.72804 -34.3118,39.8803 -24.9337,4.15227 10.7805,29.87716 10.7805,29.87716 0,0 17.2858,-17.44821 21.7581,-29.57633 6.2051,-16.82691 1.7732,-40.18113 1.7732,-40.18113 z"
     id="path78" /><path
     style="fill:#b7c4c8;fill-opacity:1"
     d="m 850.9684,642.60248 c -3.2429,-0.8102 -4.6192,-2.75658 -4.6462,-6.57062 -0.018,-2.53102 -1.1097,-3.04089 -9.0205,-4.21274 -4.95,-0.73327 -15.9,-1.95302 -24.3333,-2.71056 -33.8917,-3.04438 -63.0303,-14.52168 -91.6523,-36.10062 -24.9821,-18.83474 -60.3477,-62.52157 -60.3477,-74.54702 0,-7.84756 4.5623,-5.56968 28.0938,14.02672 33.4749,27.87701 44.358,34.19904 66.5729,38.67257 13.6575,2.75027 42.6414,2.69577 58.6666,-0.11032 43.4844,-7.61431 79.6372,-27.07392 115.0917,-61.94918 45.9812,-45.23008 74.5071,-98.93295 90.0473,-169.52265 13.7051,-62.2542 40.5535,-101.17798 78.4226,-113.69384 19.893,-6.57469 44.6374,-7.20331 59.1761,-1.50333 15.612,6.12081 29.2926,18.84645 37.2372,34.6378 4.3259,8.59851 4.6417,10.08758 4.6439,21.8927 0,7.76785 -0.6516,13.82692 -1.6885,15.66667 -3.7688,6.68707 -9.3681,2.20418 -17.4574,-13.97669 -4.548,-9.09716 -10.8836,-13.68998 -18.885,-13.68998 -12.7436,0 -27.1803,16.28768 -28.8598,32.55999 -0.6895,6.68056 -0.5566,7.02033 4.4473,11.36867 2.8368,2.46527 5.8867,5.73984 6.7773,7.27682 2.161,3.72906 2.304,40.70726 0.1756,45.37878 -0.8462,1.85701 -4.0976,4.61526 -7.2255,6.12944 -8.4488,4.09001 -8.8335,4.9187 -6.845,14.74367 1.5702,7.758 2.2242,8.85393 7.3292,12.28248 3.0828,2.07044 5.939,5.09482 6.3471,6.72083 0.4081,1.62602 -1.4017,16.73756 -4.0218,33.58119 -5.2595,33.81169 -5.4593,34.28222 -15.264,35.93871 -6.6708,1.12702 -8.2037,3.00444 -13.2345,16.20896 l -4.1361,10.85619 2.7253,8.07012 c 2.5538,7.56217 2.5908,8.35362 0.588,12.57432 -1.1756,2.47732 -11.0145,13.31048 -21.8643,24.07369 -22.0321,21.85639 -22.2942,21.98258 -33.4919,16.12745 -3.756,-1.96396 -7.6102,-3.09646 -8.9754,-2.63729 -1.316,0.44261 -8.9927,6.34901 -17.0594,13.12533 l -14.6666,12.32059 -0.6947,7.79872 c -0.8227,9.23747 -2.0078,10.44555 -21.3053,21.72003 -6.9667,4.07023 -15.5566,9.13612 -19.0886,11.25753 -9.0505,5.43586 -12.5359,5.03914 -22.4984,-2.56086 -4.6272,-3.52988 -9.474,-6.81528 -10.7708,-7.30087 -1.9184,-0.71836 -17.2213,4.27046 -35.6902,11.63516 -1.1264,0.44916 -3.1967,3.05174 -4.6006,5.78351 -5.1037,9.93059 -4.3377,9.65015 -25.8914,9.47884 -10.703,-0.0851 -20.66,-0.45448 -22.1267,-0.82091 z m 44.5419,-8.78586 c 1.9039,-3.53546 4.4079,-6.95767 5.5644,-7.6049 4.267,-2.38793 34.7685,-13.30033 37.1761,-13.30033 1.3696,0 6.8461,3.3 12.1699,7.33334 5.3238,4.03333 10.513,7.33333 11.5316,7.33333 2.8338,0 37.0772,-19.89255 43.0624,-25.01561 4.7777,-4.08959 5.287,-5.13314 5.287,-10.83345 0,-3.46936 0.75,-7.26008 1.6667,-8.42383 1.7774,-2.25643 23.4487,-20.29891 28.9633,-24.11344 4.4871,-3.10374 7.8628,-2.87053 15.242,1.053 3.448,1.83333 6.9805,3.33333 7.85,3.33333 0.8696,0 11.0378,-9.44297 22.5962,-20.98437 22.9445,-22.91095 22.6279,-22.33147 18.8127,-34.43465 l -2.2023,-6.98673 5.2741,-13.10235 c 5.6045,-13.92295 6.2877,-14.57088 17.9835,-17.05475 1.9358,-0.41111 3.9021,-1.74406 4.3695,-2.96212 0.4674,-1.21805 2.9267,-15.3756 5.465,-31.46122 4.5066,-28.5585 4.6248,-34.34714 0.7013,-34.34714 -0.6512,0 -2.9772,-1.50881 -5.1688,-3.35292 -3.2343,-2.72152 -4.2903,-5.06284 -5.6075,-12.43326 -1.9123,-10.70081 -0.8809,-13.65699 5.67,-16.25055 9.0933,-3.60013 9.051,-3.47188 9.051,-27.43689 v -21.72699 l -6.1278,-5.06636 -6.1277,-5.06637 0.5946,-8.66666 c 0.6977,-10.16967 4.139,-17.68537 12.0054,-26.21933 7.1165,-7.72057 9.2549,-8.77703 19.6102,-9.68849 l 8.6214,-0.75885 -3.9547,-2.66265 c -6.2767,-4.22598 -27.2428,-4.54378 -39.5113,-0.59891 -19.3649,6.22662 -36.3316,20.95923 -45.1549,39.20905 -7.1512,14.79116 -8.8154,23.43881 -11.2122,58.26158 -1.1435,16.61499 -3.2539,37.01499 -4.6897,45.33333 -17.7736,102.97351 -91.056,190.4713 -181.907,217.19346 -7.4138,2.18063 -18.8796,4.79903 -25.4796,5.81866 -6.6,1.01962 -11.2772,1.91198 -10.3938,1.98301 0.8835,0.071 1.9954,2.20313 2.4709,4.73802 l 0.8646,4.60888 8.8625,0.4861 c 4.8743,0.26735 14.2055,0.44335 20.7359,0.39112 l 11.8734,-0.095 z m -26.9237,3.43352 c -7.9224,-0.26501 -12.7366,-0.94109 -12.2547,-1.72095 0.8834,-1.42934 19.302,-1.75136 25.8032,-0.45113 4.3336,0.86673 5.9275,3.37726 1.8333,2.88761 -1.2833,-0.15348 -8.2051,-0.47547 -15.3818,-0.71553 z m 97.7151,-22.23777 c 0,-4.73356 25.9018,-19.43431 34.242,-19.43431 4.1153,0 1.1563,2.44049 -7.0402,5.80654 -4.839,1.98724 -12.189,5.84373 -16.3333,8.56998 -4.1443,2.72625 -8.2851,5.43663 -9.2018,6.02307 -1.0706,0.68493 -1.6667,0.33972 -1.6667,-0.96528 z m -10.6666,-18.12662 c 0,-3.11149 15.3284,-16.40058 23.2281,-20.1378 7.9976,-3.78355 14.1052,-4.94098 14.1052,-2.67304 0,2.43669 -11.7523,11.84398 -21.3398,17.08175 -11.6814,6.38166 -15.9935,7.92633 -15.9935,5.72909 z M 1069.74,545.91139 c 2.8376,-8.9486 15.1877,-23.47711 23.6909,-27.86971 8.3772,-4.32752 7.4092,-1.53364 -2.6039,7.51489 -5.1708,4.67281 -11.7041,11.83924 -14.5184,15.92542 -5.2907,7.68192 -8.2281,9.66267 -6.5686,4.4294 z m -39.5963,-13.33333 c -0.3522,-3.71557 0.6382,-5.82896 6.0541,-12.91929 3.1147,-4.07773 9.4407,-13.11404 14.0577,-20.08071 13.564,-20.4669 19.2751,-25.09023 22.8173,-18.47143 3.9197,7.32401 -4.7291,29.83293 -15.665,40.76881 -9.0223,9.0223 -26.7632,15.98657 -27.2641,10.70262 z m 96.883,-77.40835 c -2.9361,-6.62158 2.2747,-43.59165 6.1442,-43.59165 1.5407,0 1.4468,1.43914 -0.9165,14.05141 -1.1261,6.00924 -2.5227,15.656 -3.1036,21.43724 -0.7109,7.07516 -1.4053,9.72405 -2.1241,8.103 z m -50.1626,-7.05061 c -1.4806,-1.78401 -1.0611,-5.68485 2.61,-24.27241 5.108,-25.86231 6.7558,-29.94753 11.8386,-29.34984 7.8493,0.92302 11.6573,16.51826 7.7591,31.77669 -2.612,10.22387 -7.2493,17.74962 -13.1568,21.35159 -5.1965,3.16849 -6.7604,3.25384 -9.0509,0.49397 z m 15.3117,-87.72172 c -0.3899,-1.01605 -0.5211,-12.98752 -0.2915,-26.60329 0.4584,-27.18883 1.1072,-29.58818 6.9628,-25.75143 9.6618,6.33065 9.9459,40.86705 0.4212,51.20207 -3.1366,3.40342 -6.0473,3.87646 -7.0925,1.15265 z m 40.5397,-16.89079 c -0.2862,-10.59403 -0.3364,-19.52186 -0.1116,-19.83964 0.2249,-0.31778 1.1489,0.16288 2.0533,1.06812 2.0568,2.05863 2.0387,31.8507 -0.022,35.53225 -1.0439,1.86533 -1.532,-2.39528 -1.9201,-16.76073 z m -329.1216,215.62115 -12.4328,-4.21635 -8.4297,-19.78976 -8.4297,-19.78977 V 468.2993 421.26674 l -22.3333,-2.97771 -22.3333,-2.97771 -9.0682,-17.53329 -9.0682,-17.5333 0.068,-14.26708 c 0.05,-10.49054 0.5438,-14.54932 1.865,-15.33334 0.9883,-0.58644 4.8941,-3.79918 8.6797,-7.13942 l 6.8829,-6.07317 -26.4461,-19.00973 c -25.0048,-17.97364 -26.5659,-19.3504 -28.6428,-25.26017 -1.2082,-3.43773 -4.6748,-13.29782 -7.7036,-21.91131 -3.0288,-8.61348 -6.0037,-15.35387 -6.6108,-14.97863 -2.1108,1.30451 -12.3249,29.39773 -16.057,44.16365 -10.1526,40.16801 -10.6503,87.23356 -1.3358,126.31992 6.3728,26.74213 19.8345,58.44031 34.1368,80.382 7.233,11.09639 7.3798,11.48716 3.1122,8.28024 -2.4634,-1.85116 -6.4139,-4.77403 -8.7787,-6.49525 -5.1062,-3.71648 -20.5599,-33.7842 -27.0744,-52.67771 -16.2542,-47.14078 -19.632,-96.31912 -9.9141,-144.34126 8.3414,-41.22003 28.18,-83.24494 54.9133,-116.32541 9.5415,-11.80693 32.3992,-34.21926 43.7082,-42.85677 37.9936,-29.01824 83.4595,-48.11279 130,-54.596789 16.2938,-2.27005 55.7063,-2.27005 72,0 48.6509,6.777999 96.4048,27.491409 134.6667,58.411969 12.9323,10.451 34.7339,32.95245 44.4016,45.82695 4.1791,5.56529 7.5984,10.51529 7.5984,11 0,0.48472 -1.703,0.88131 -3.7843,0.88131 -3.1276,0 -5.204,-1.79318 -11.965,-10.33334 -11.679,-14.75218 -15.5602,-19 -17.36,-19 -0.87,0 -6.7875,3.35826 -13.15,7.4628 l -11.5683,7.46279 -18.7529,-3.68805 c -10.3141,-2.02843 -26.4919,-6.27462 -35.9507,-9.43598 l -17.1979,-5.74793 -18.5912,5.46716 -18.5912,5.46717 -13.026,-5.62761 -13.0259,-5.6276 7.4817,-17.85135 7.4817,-17.85135 18.3186,-0.015 18.3187,-0.015 15.348,-7.63983 c 8.4414,-4.20191 15.348,-8.07384 15.348,-8.60428 0,-3.07451 -41.5157,-17.1176 -62.059,-20.99206 -41.9232,-7.906689 -87.1511,-5.54631 -126.2037,6.58642 -7.1888,2.23339 -13.0706,4.27277 -13.0706,4.53195 0,0.25919 3.9587,3.05044 8.7971,6.20279 7.9695,5.19234 10.6351,6.08728 28.3334,9.51278 10.7449,2.07968 22.597,4.39499 26.338,5.14513 l 6.8019,1.3639 -3.0928,12.79306 c -1.701,7.03619 -3.2618,12.91918 -3.4685,13.07331 -0.2067,0.15413 -6.3536,2.32323 -13.6599,4.82021 l -13.2842,4.53996 -13.2074,22.05031 -13.2073,22.05031 -21.5085,12.92293 -21.5085,12.92293 -28,3.3639 c -15.4,1.85014 -30.0385,3.70597 -32.53,4.12407 l -4.53,0.76017 0.8545,13.96482 0.8544,13.96482 7.8863,7.30129 7.8863,7.30129 0.9669,18.7667 0.9669,18.7667 12.2931,-12.24202 12.2931,-12.24202 9.2393,15.77857 9.2393,15.77856 23.29,0.93001 c 12.8095,0.5115 26.8132,1.1115 31.1193,1.33333 l 7.8295,0.40333 13.6589,21.33333 13.659,21.33333 17.9252,0.36932 17.9253,0.36931 -3.8504,20.96402 -3.8504,20.96397 -18.5633,18.68335 -18.5632,18.68335 v 13.56081 13.56081 l -17.3115,12.42251 -17.3115,12.4225 -0.022,21.52402 c -0.017,16.84883 -0.4137,21.67439 -1.826,22.21634 -0.9923,0.38078 -7.399,-1.20502 -14.237,-3.52401 z M 956.3017,321.42886 c -16.8666,-7.75216 -30.7502,-14.18993 -30.8524,-14.30615 -0.1022,-0.11623 -1.7659,-12.81132 -3.6972,-28.21132 -1.9313,-15.4 -3.8007,-29.31637 -4.1542,-30.92526 -0.5216,-2.37376 2.0419,-5.32744 13.5969,-15.66667 l 14.2396,-12.7414 h 27.0705 27.0705 l 9.3239,13.89705 c 5.1282,7.64338 9.9561,14.28773 10.7286,14.76521 0.7726,0.47749 7.0569,1.52958 13.9651,2.33798 l 12.5605,1.46983 -3.7539,4.76497 c -8.477,10.76017 -18.9945,36.13894 -24.7067,59.61719 l -3.6071,14.82572 -10.892,2.16206 c -5.9906,1.18913 -12.0921,2.14937 -13.5587,2.13385 -1.4667,-0.0155 -16.4667,-6.37089 -33.3334,-14.12306 z"
     id="path62"
     sodipodi:nodetypes="sssssssssssssscsssssssssssssscsssssscsssssssssssssssssssssscssssssssscccssscsssscsssscsscsssssssssssssssssssssssssssssssssssssssssssscsssccccccccccccssscsssssssssssscssssssssscsscccccccccsssssssscssscccccsscccccccccccssccccccccccccccsccssssscccssscsscsss" /><path
     d="m 1150.7553,363.51964 c 1.7391,6.44457 2.46,14.18643 -2.581,18.29926 -3.0464,2.48557 -8.0603,1.74385 -11.4856,0.83234 -9.1981,-2.44778 -18.0814,-8.50239 -25.5722,-14.8326 -20.7109,-17.50217 -39.3144,-38.06037 -55.2605,-61.07266 -4.5155,-6.51628 -12.9253,-13.87871 -15.5861,-21.5634 -1.0998,-3.17629 1.7617,-6.79854 0.6484,-10.7817 0,0 -1.1483,-2.53291 -3.0085,-3.48317 -1.8603,-0.95026 -6.0891,-6.01165 -10.5297,-5.96829 -8.5111,0.083 -17.4004,5.46224 -26.0737,4.85886 -3.9962,-0.278 -6.4172,-3.37366 -10.0284,-4.4865 v 9.07933 l -5.0141,0.56746 v 2.83729 c 7.5768,0 8.518,6.01079 14.0396,11.16183 6.4123,5.98203 16.4825,5.48676 23.0652,0.18732 0.051,20.99305 6.1571,43.5575 11.3201,63.55528 5.5983,21.68439 10.5664,44.09942 18.9196,64.6902 3.8268,9.43302 8.9752,17.40444 13.8379,26.10306 8.8754,15.87679 18.6955,33.37509 32.1377,41.99188 13.4421,8.61679 29.386,16.93238 44.1245,21.5634 7.2972,1.85519 10.5794,-5.98407 8.6299,-13.61899 -0.8497,-3.32803 -3.5396,-5.48692 -3.599,-9.07933 -0.1458,-8.81874 2.2009,-17.82073 2.4855,-26.67051 0.739,-22.98102 3.9806,-46.35359 5.9367,-69.22986 0.4582,-5.35822 -2.0252,-11.02156 -1.4171,-15.88882 0.7818,-6.25765 -4.8854,-22.96714 -10.8091,-25.76636 z"
     style="fill:#c61529;fill-opacity:1;stroke-width:0.533416"
     id="path68" /></svg>
